# xmcd
#
# Track frame offsets:
#  150
#  9682
#  25595
#  42540
#  58830
#  78467
#  93642
#  103552
#  122135
#  143550
#  158867
#  174197
#
# Disc length: 2854 seconds
#
# Revision: 0
# Processed by: cddbd v1.5.2PL0 Copyright (c) Steve Scherf et al.
# Submitted via: Collectorz.com_Music_Collector 6.10
#
DISCID=960b240c
DTITLE=Peer Gynt - Første Akt
DYEAR=1995
DGENRE=Norsk
TTITLE0=Æ Lægg På
TTITLE1=Sankt Petter
TTITLE2=Ha Dæ Heim
TTITLE3=Bærtur
TTITLE4=Buttonsælger'n
TTITLE5=Hei Mamma
TTITLE6=Traktor Boogie
TTITLE7=Livets Takt
TTITLE8=Dokter
TTITLE9=Til Minne Om
TTITLE10=Høstfiken
TTITLE11=Elskovs Paradis
EXTD=
EXTT0=
EXTT1=
EXTT2=
EXTT3=
EXTT4=
EXTT5=
EXTT6=
EXTT7=
EXTT8=
EXTT9=
EXTT10=
EXTT11=
PLAYORDER=
